<?xml version="1.0" standalone="no"?><!DOCTYPE svg PUBLIC "-//W3C//DTD SVG 1.1//EN" "http://www.w3.org/Graphics/SVG/1.1/DTD/svg11.dtd"><svg t="1695976873476" class="icon" viewBox="0 0 1024 1024" version="1.1" xmlns="http://www.w3.org/2000/svg" p-id="6567" xmlns:xlink="http://www.w3.org/1999/xlink" width="200" height="200"><path d="M0 0m125.41335 0l773.1733 0q125.41335 0 125.41335 125.41335l0 773.1733q0 125.41335-125.41335 125.41335l-773.1733 0q-125.41335 0-125.41335-125.41335l0-773.1733q0-125.41335 125.41335-125.41335Z" fill="#F5AD28" p-id="6568"></path><path d="M296.759339 753.890998a47.030006 47.030006 0 0 1-47.030006-47.030006v-120.396816a47.030006 47.030006 0 0 1 94.060012 0v120.396816a47.030006 47.030006 0 0 1-47.030006 47.030006zM512 753.890998a47.030006 47.030006 0 0 1-47.030006-47.030006V317.139008a47.030006 47.030006 0 1 1 94.060012 0v389.721984a47.030006 47.030006 0 0 1-47.030006 47.030006z" fill="#F8DAB2" p-id="6569"></path><path d="M727.240661 753.890998a47.030006 47.030006 0 0 1-47.030006-47.030006V485.97673a47.030006 47.030006 0 0 1 94.060012 0v220.884262a47.030006 47.030006 0 0 1-47.030006 47.030006z" fill="#FCF7EF" p-id="6570"></path></svg>